<?xml version="1.0" encoding="utf-8"?>
<!-- Generator: Adobe Illustrator 14.0.0, SVG Export Plug-In  -->
<!DOCTYPE svg PUBLIC "-//W3C//DTD SVG 1.0//EN" "http://www.w3.org/TR/2001/REC-SVG-20010904/DTD/svg10.dtd" [
	<!ENTITY ns_flows "http://ns.adobe.com/Flows/1.0/">
]>
<svg version="1.0"
	 xmlns="http://www.w3.org/2000/svg" xmlns:xlink="http://www.w3.org/1999/xlink" xmlns:a="http://ns.adobe.com/AdobeSVGViewerExtensions/3.0/"
	 x="0px" y="0px" width="221px" height="99px" viewBox="-23.394 -13.817 221 99" enable-background="new -23.394 -13.817 221 99"
	 xml:space="preserve">
<defs>
</defs>
<g>
	<defs>
		<rect id="SVGID_1_" width="174.044" height="70.935"/>
	</defs>
	<clipPath id="SVGID_2_">
		<use xlink:href="#SVGID_1_"  overflow="visible"/>
	</clipPath>
	<path clip-path="url(#SVGID_2_)" d="M166.043,48.541c-0.916,0.916-1.375,2.009-1.375,3.277c0,1.245,0.459,2.332,1.375,3.259
		c0.914,0.929,2.008,1.393,3.276,1.393c1.294,0,2.382-0.452,3.261-1.355c0.879-0.902,1.317-2.002,1.317-3.296
		s-0.446-2.393-1.337-3.296s-1.973-1.354-3.241-1.354S166.957,47.626,166.043,48.541 M170.821,40.868l0.146-7.03
		c0.099-5.396,0.636-11.09,1.613-17.084c0.976-5.993,1.463-9.405,1.463-10.235c0-2.149-0.396-3.772-1.189-4.871S170.881,0,169.319,0
		c-1.514,0-2.679,0.556-3.497,1.666s-1.227,2.703-1.227,4.778c0,0.831,0.488,4.255,1.465,10.273
		c0.977,6.018,1.514,11.725,1.611,17.12l0.146,7.03H170.821z M134.071,55.334v-3.149l-3.112-0.146
		c-1.025-0.049-1.697-0.237-2.015-0.567s-0.476-1.068-0.476-2.216V36.877c0-4.125,0.805-7.244,2.416-9.356s4.004-3.168,7.178-3.168
		c2.197,0,3.895,0.611,5.091,1.831c1.196,1.221,1.794,2.966,1.794,5.237v17.834c0,1.074-0.158,1.795-0.476,2.161
		c-0.317,0.365-0.989,0.573-2.015,0.622l-3.186,0.146v3.149h18.127v-3.149l-3.186-0.146c-1.025-0.049-1.697-0.251-2.014-0.604
		c-0.318-0.353-0.477-1.08-0.477-2.179V31.714c0-3.833-0.989-6.793-2.967-8.881s-4.772-3.132-8.385-3.132
		c-2.564,0-4.83,0.58-6.795,1.74c-1.965,1.159-3.789,2.984-5.474,5.475v-7.215l-12.854,0.916v2.93c0.293,0,0.689-0.013,1.19-0.036
		c0.5-0.024,0.86-0.037,1.08-0.037c1.66,0,2.759,0.202,3.296,0.604c0.537,0.403,0.807,1.203,0.807,2.399v22.778
		c0,1.124-0.154,1.855-0.459,2.197c-0.306,0.343-0.982,0.537-2.033,0.586l-3.186,0.146v3.149H134.071z M111.22,38.524V37.17
		c0-5.493-1.416-9.826-4.248-13c-2.832-3.175-6.688-4.762-11.572-4.762c-4.81,0-8.722,1.717-11.737,5.146
		c-3.016,3.431-4.522,7.917-4.522,13.459c0,5.517,1.507,9.985,4.522,13.403s6.928,5.127,11.737,5.127
		c3.613,0,6.744-0.886,9.394-2.655c2.648-1.771,4.791-4.413,6.427-7.929l-2.636-1.501c-1.369,2.71-3.047,4.736-5.037,6.078
		c-1.989,1.344-4.278,2.015-6.865,2.015c-3.053,0-5.482-1.122-7.288-3.369c-1.808-2.246-2.71-5.297-2.71-9.155
		c0-0.146,0.012-0.385,0.037-0.714c0.023-0.33,0.035-0.592,0.035-0.788H111.22z M89.101,25.598c1.416-2.124,3.54-3.187,6.372-3.187
		c2.564,0,4.529,0.904,5.896,2.71c1.366,1.808,2.051,4.407,2.051,7.801c0,0.903-0.178,1.525-0.531,1.868
		c-0.354,0.342-1.057,0.513-2.105,0.513H86.867C86.939,30.957,87.685,27.722,89.101,25.598 M63.577,49.017
		c-1.453,2.307-3.717,3.461-6.793,3.461c-3.15,0-5.439-1.129-6.867-3.387s-2.142-5.902-2.142-10.933
		c0-5.077,0.738-8.746,2.215-11.004c1.477-2.258,3.864-3.388,7.16-3.388c2.978,0,5.157,1.154,6.537,3.461
		c1.379,2.307,2.069,5.951,2.069,10.931C65.755,43.091,65.028,46.71,63.577,49.017 M47.334,19.774L35.176,20.69v3.223
		c0.22,0,0.537-0.012,0.952-0.036s0.72-0.037,0.916-0.037c1.562,0,2.587,0.208,3.076,0.623c0.488,0.415,0.733,1.258,0.733,2.526
		v37.939c0,1.099-0.147,1.812-0.44,2.143c-0.293,0.329-0.977,0.519-2.051,0.567l-3.186,0.146v3.149h18.311v-3.149l-3.15-0.146
		c-1.074-0.049-1.77-0.244-2.087-0.586c-0.318-0.342-0.476-1.05-0.476-2.124V51.195c1.416,1.905,2.942,3.284,4.578,4.139
		c1.635,0.854,3.588,1.281,5.859,1.281c4.37,0,8.007-1.77,10.913-5.31c2.905-3.54,4.358-8.069,4.358-13.586
		c0-5.298-1.441-9.674-4.321-13.129c-2.881-3.454-6.482-5.183-10.804-5.183c-2.319,0-4.388,0.562-6.207,1.686
		c-1.819,1.123-3.424,2.832-4.816,5.127V19.774z M9.907,26.184c1.452-2.466,3.765-3.699,6.939-3.699
		c3.198,0,5.524,1.233,6.977,3.699C25.274,28.649,26,32.593,26,38.013s-0.726,9.351-2.178,11.792
		c-1.453,2.44-3.803,3.662-7.05,3.662c-3.125,0-5.414-1.239-6.866-3.717c-1.453-2.479-2.179-6.392-2.179-11.737
		C7.728,32.593,8.454,28.649,9.907,26.184 M4.688,51.416c3.125,3.418,7.178,5.127,12.158,5.127c4.981,0,9.027-1.709,12.14-5.127
		c3.113-3.418,4.669-7.887,4.669-13.403c0-5.542-1.55-10.028-4.651-13.459c-3.1-3.429-7.153-5.146-12.158-5.146
		c-4.98,0-9.033,1.717-12.158,5.146C1.562,27.984,0,32.471,0,38.013C0,43.529,1.562,47.998,4.688,51.416"/>
</g>
</svg>
