<?xml version="1.0" encoding="utf-8"?>
<!-- Generator: Adobe Illustrator 16.0.0, SVG Export Plug-In . SVG Version: 6.00 Build 0)  -->
<!DOCTYPE svg PUBLIC "-//W3C//DTD SVG 1.1//EN" "http://www.w3.org/Graphics/SVG/1.1/DTD/svg11.dtd">
<svg version="1.1" id="Layer_1" xmlns="http://www.w3.org/2000/svg" xmlns:xlink="http://www.w3.org/1999/xlink" x="0px" y="0px"
	 width="113.39px" height="113.39px" viewBox="0 0 113.39 113.39" enable-background="new 0 0 113.39 113.39" xml:space="preserve">
<g>
	<path fill="#CCCCCC" d="M45.445,79.869l-28.542,28.542c-2.898,2.898-7.643,2.898-10.541,0l-1.235-1.235
		c-2.898-2.898-2.898-7.643,0-10.541L33.67,68.093"/>
</g>
<path fill="#CCCCCC" d="M68.597,87.195c-23.262,0-42.187-18.925-42.187-42.186c0-23.262,18.925-42.187,42.187-42.187
	s42.187,18.925,42.187,42.187C110.783,68.271,91.858,87.195,68.597,87.195z M68.597,11.323c-18.575,0-33.687,15.112-33.687,33.687
	s15.111,33.686,33.687,33.686s33.687-15.111,33.687-33.686S87.172,11.323,68.597,11.323z"/>
</svg>
